<svg width="256" height="256" viewBox="0 0 256 256" fill="none" xmlns="http://www.w3.org/2000/svg">
  <rect width="256" height="256" rx="56" fill="#111827"/>
  <circle cx="128" cy="128" r="74" stroke="#9CA3AF" stroke-width="10"/>
  <path d="M112 100C96 100 85 112 85 128C85 144 96 156 112 156C121 156 129 152 135 145L124 135C121 139 117 141 112 141C103 141 97 135 97 128C97 121 103 115 112 115C117 115 121 117 124 121L135 111C129 104 121 100 112 100Z" fill="#FFFFFF"/>
  <path d="M155 100H165V116H181V126H165V142H155V126H139V116H155V100Z" fill="#F97316"/>
  <path d="M155 148H165V164H181V174H165V190H155V174H139V164H155V148Z" fill="#F97316"/>
</svg>